HIERARCHY
ROOT Hips
{
 OFFSET 0.000000 0.000000 0.000000
 CHANNELS 6 Xposition Yposition Zposition Yrotation Xrotation Zrotation
 JOINT Chest
 {
  OFFSET 0.000000 9.588913 -0.003946
  CHANNELS 3 Yrotation Xrotation Zrotation
  JOINT Chest2
  {
   OFFSET 0.000000 9.541882 0.008053
   CHANNELS 3 Yrotation Xrotation Zrotation
   JOINT Chest3
   {
    OFFSET 0.000000 9.501360 0.000000
    CHANNELS 3 Yrotation Xrotation Zrotation
    JOINT Chest4
    {
     OFFSET 0.000000 9.491660 0.000000
     CHANNELS 3 Yrotation Xrotation Zrotation
     JOINT Neck
     {
      OFFSET 0.000000 14.331917 0.000000
      CHANNELS 3 Yrotation Xrotation Zrotation
      JOINT Head
      {
       OFFSET 0.000000 8.884799 0.017034
       CHANNELS 3 Yrotation Xrotation Zrotation
       End Site
       {
        OFFSET 0.000000 16.896195 0.008993
       }
      }
     }
     JOINT RightCollar
     {
      OFFSET -2.923010 9.499495 0.000000
      CHANNELS 3 Yrotation Xrotation Zrotation
      JOINT RightShoulder
      {
       OFFSET -13.795216 0.000000 0.000000
       CHANNELS 3 Yrotation Xrotation Zrotation
       JOINT RightElbow
       {
        OFFSET -30.272209 0.000000 0.000000
        CHANNELS 3 Yrotation Xrotation Zrotation
        JOINT RightWrist
        {
         OFFSET -24.478199 0.000000 0.000000
         CHANNELS 3 Yrotation Xrotation Zrotation
         End Site
         {
          OFFSET -18.090752 0.000000 0.000000
         }
        }
       }
      }
     }
     JOINT LeftCollar
     {
      OFFSET 2.923010 9.499495 0.000000
      CHANNELS 3 Yrotation Xrotation Zrotation
      JOINT LeftShoulder
      {
       OFFSET 13.795216 0.000000 0.000000
       CHANNELS 3 Yrotation Xrotation Zrotation
       JOINT LeftElbow
       {
        OFFSET 30.272209 0.000000 0.000000
        CHANNELS 3 Yrotation Xrotation Zrotation
        JOINT LeftWrist
        {
         OFFSET 24.478199 0.000000 0.000000
         CHANNELS 3 Yrotation Xrotation Zrotation
         End Site
         {
          OFFSET 18.090752 0.000000 0.000000
         }
        }
       }
      }
     }
    }
   }
  }
 }
 JOINT RightHip
 {
  OFFSET -7.826875 0.019532 0.001973
  CHANNELS 3 Yrotation Xrotation Zrotation
  JOINT RightKnee
  {
   OFFSET 0.000000 -40.546152 -0.001885
   CHANNELS 3 Yrotation Xrotation Zrotation
   JOINT RightAnkle
   {
    OFFSET 0.000000 -39.417092 -0.003189
    CHANNELS 3 Yrotation Xrotation Zrotation
    JOINT RightToe
    {
     OFFSET 0.000000 -7.579396 17.243563
     CHANNELS 3 Yrotation Xrotation Zrotation
     End Site
     {
      OFFSET 0.000000 -1.500329 6.694466
     }
    }
   }
  }
 }
 JOINT LeftHip
 {
  OFFSET 7.826875 0.019532 0.001973
  CHANNELS 3 Yrotation Xrotation Zrotation
  JOINT LeftKnee
  {
   OFFSET 0.000000 -40.546152 -0.001885
   CHANNELS 3 Yrotation Xrotation Zrotation
   JOINT LeftAnkle
   {
    OFFSET 0.000000 -39.417092 -0.003189
    CHANNELS 3 Yrotation Xrotation Zrotation
    JOINT LeftToe
    {
     OFFSET 0.000000 -7.579396 17.243563
     CHANNELS 3 Yrotation Xrotation Zrotation
     End Site
     {
      OFFSET 0.000000 -1.500329 6.694466
     }
    }
   }
  }
 }
}
MOTION
Frames: 12
Frame Time: 0.008333
0.000000 87.345680 0.000000 0.000000 -5.767889 0.000000 0.000000 11.653876 0.000000 0.000000 -5.885988 0.000000 0.000000 -0.000000 0.000000 0.000000 -0.000000 0.000000 0.000000 12.528808 0.000000 0.000000 0.711711 0.000000 0.000000 -0.000000 0.000000 0.000000 -0.000000 0.000000 2.309063 -0.000000 0.000000 -2.309063 -0.000000 -0.000000 0.000000 -0.000000 0.000000 0.000000 0.000000 0.000000 -2.309063 0.000000 0.000000 2.309063 -0.000000 0.000000 0.000000 8.520374 0.000000 0.000000 1.905768 0.000000 -0.000000 -4.658254 0.000000 0.000000 -0.000000 0.000000 0.000000 8.520374 0.000000 0.000000 1.905768 0.000000 -0.000000 -4.658254 0.000000 0.000000 -0.000000 0.000000
28.266286 88.718752 -15.971985 -56.921402 -5.754255 0.473177 7.792900 3.400166 0.856147 4.465073 1.989167 0.304904 5.583829 2.482271 0.405355 4.465074 1.989166 0.304905 -1.215625 17.101849 -1.077921 -1.031149 -7.755120 -0.855475 -12.243388 -0.854202 -0.662639 6.415756 -5.870628 87.425675 4.227857 -3.101238 2.446976 2.645441 -7.641034 -3.791496 -19.402205 -1.317428 0.280742 2.070586 -2.325360 -90.757045 -0.390936 2.728054 2.144389 0.819970 0.452942 7.209013 13.604411 13.254975 -6.400152 1.135639 -1.235686 -0.091741 -3.637426 -4.004412 6.939321 -0.036756 0.245808 -0.025089 15.003795 11.933510 6.592018 11.745243 -0.711141 -0.536375 -2.132244 -4.850401 -3.344532 -0.039575 -0.489504 -0.042629
28.188864 88.713368 -15.969884 -56.975031 -5.786548 0.479575 7.785889 3.371573 0.867688 4.460912 1.968864 0.308222 5.578612 2.456862 0.409230 4.460913 1.968864 0.308222 -1.181714 17.087234 -1.079090 -0.995181 -7.771324 -0.864274 -12.232620 -0.887689 -0.648792 6.506648 -5.986545 87.472666 4.623257 -3.040607 2.598157 2.718354 -7.631101 -3.836877 -19.431148 -1.371634 0.266790 1.661193 -2.506636 -90.946319 -0.740087 3.117500 1.915750 0.524054 0.369831 7.380291 13.669590 13.311501 -6.344796 1.134432 -1.214027 -0.091589 -3.681791 -4.056138 6.896799 -0.034438 0.255051 -0.021860 15.025055 12.000243 6.622147 11.778563 -0.695251 -0.508481 -2.127488 -4.866206 -3.399034 -0.034061 -0.488104 -0.042741
28.101281 88.706742 -15.968012 -57.030714 -5.820988 0.487756 7.782661 3.341103 0.877661 4.458649 1.949945 0.311397 5.575768 2.433181 0.412955 4.458650 1.949945 0.311397 -1.147545 17.074672 -1.074843 -0.960180 -7.785345 -0.867452 -12.222533 -0.911825 -0.630104 6.600868 -6.107650 87.528102 4.983624 -2.993389 2.732896 2.790098 -7.624802 -3.878382 -19.450374 -1.422438 0.258678 1.279152 -2.681665 -91.128076 -1.134558 3.358906 1.603476 0.297877 0.278426 7.410607 13.757120 13.372669 -6.278264 1.129342 -1.183046 -0.088022 -3.765153 -4.118233 6.846975 -0.038155 0.267945 -0.020434 15.048333 12.072307 6.656176 11.810534 -0.674893 -0.479706 -2.119198 -4.888947 -3.457388 -0.030707 -0.486440 -0.044339
28.007165 88.699082 -15.966445 -57.085677 -5.857393 0.496438 7.781879 3.310368 0.887229 4.457053 1.932304 0.314204 5.573758 2.411101 0.416239 4.457054 1.932304 0.314204 -1.111956 17.063044 -1.065633 -0.924820 -7.798401 -0.865743 -12.210708 -0.932002 -0.609181 6.696958 -6.231541 87.594237 5.307464 -2.955960 2.852806 2.858091 -7.623026 -3.922987 -19.457114 -1.470042 0.254047 0.934841 -2.853115 -91.293389 -1.563592 3.440162 1.212981 0.156501 0.193464 7.245179 13.861459 13.437960 -6.229302 1.122694 -1.146438 -0.076932 -3.770274 -4.189191 6.796909 -0.035269 0.272702 -0.014107 15.080941 12.148320 6.696707 11.831009 -0.653471 -0.453166 -2.108552 -4.917505 -3.516993 -0.028590 -0.482641 -0.046522
27.910091 88.690682 -15.965090 -57.144000 -5.894088 0.506245 7.783875 3.280864 0.895841 4.456677 1.915726 0.316723 5.573273 2.390352 0.419183 4.456678 1.915726 0.316723 -1.074286 17.050853 -1.052491 -0.888169 -7.812109 -0.860374 -12.195413 -0.954650 -0.589726 6.795500 -6.353823 87.673988 5.595531 -2.925364 2.957264 2.918073 -7.626509 -3.969217 -19.458018 -1.515831 0.249558 0.651115 -3.021067 -91.432016 -1.989073 3.421256 0.746247 0.072805 0.063252 6.883150 13.988149 13.505929 -6.181261 1.109917 -1.108495 -0.057679 -3.787198 -4.262011 6.744816 -0.033574 0.278185 -0.010074 15.128554 12.226253 6.740483 11.833518 -0.633488 -0.426575 -2.091043 -4.949901 -3.578029 -0.028045 -0.476694 -0.048590
27.811217 88.681894 -15.965912 -57.198962 -5.930077 0.501522 7.784211 3.250429 0.917423 4.457028 1.899973 0.319208 5.573697 2.370635 0.422098 4.457028 1.899973 0.319208 -1.033664 17.037370 -1.036464 -0.849074 -7.827251 -0.852639 -12.175329 -0.980186 -0.573574 6.899920 -6.472207 87.768573 5.846029 -2.907037 3.044506 2.971755 -7.630746 -4.011925 -19.454715 -1.561675 0.244256 0.436945 -3.182916 -91.535621 -2.387489 3.353519 0.215721 0.021511 -0.128560 6.338223 14.130020 13.575838 -6.104435 1.087953 -1.077588 -0.036013 -3.866611 -4.349566 6.691138 -0.040856 0.308395 -0.013050 15.177976 12.299083 6.799864 11.826241 -0.617027 -0.398400 -2.065070 -4.957392 -3.640824 -0.031013 -0.492014 -0.051387
27.714071 88.673226 -15.964564 -57.250870 -5.967920 0.510626 7.786021 3.224129 0.923173 4.457126 1.884362 0.321967 5.573808 2.351091 0.425357 4.457127 1.884362 0.321968 -0.990635 17.023943 -1.018344 -0.807936 -7.842354 -0.843256 -12.153495 -1.003841 -0.560471 7.011948 -6.587846 87.877162 6.057058 -2.900521 3.116678 3.019671 -7.632145 -4.048569 -19.450721 -1.606933 0.236978 0.296687 -3.331209 -91.598732 -2.769787 3.259103 -0.366905 0.002298 -0.361266 5.651677 14.266978 13.656097 -6.038962 1.060490 -1.058957 -0.017087 -3.959948 -4.409158 6.641806 -0.046661 0.321594 -0.017618 15.216144 12.381942 6.842120 11.825101 -0.604059 -0.370592 -2.040545 -4.990818 -3.703390 -0.032145 -0.482334 -0.052193
27.617533 88.665108 -15.962641 -57.293077 -6.010931 0.519726 7.786268 3.200444 0.927205 4.456541 1.869736 0.325277 5.573069 2.332773 0.429311 4.456542 1.869736 0.325277 -0.947951 17.010490 -0.999424 -0.767354 -7.857464 -0.832961 -12.135112 -1.024409 -0.550643 7.128803 -6.701158 87.999125 6.233182 -2.894665 3.174700 3.059757 -7.636103 -4.078116 -19.452101 -1.652165 0.225368 0.231986 -3.459010 -91.619901 -3.161689 3.149149 -1.009049 0.032334 -0.605046 4.904331 14.384174 13.748122 -5.937425 1.028400 -1.055501 -0.006757 -4.197473 -4.456502 6.590937 -0.068081 0.349507 -0.033680 15.241916 12.468419 6.884149 11.836261 -0.588616 -0.344122 -2.024598 -5.023882 -3.765903 -0.033269 -0.473153 -0.051749
27.521033 88.657928 -15.959873 -57.323354 -6.064243 0.528683 7.784369 3.181701 0.931733 4.455014 1.857801 0.328930 5.571158 2.317813 0.433724 4.455015 1.857801 0.328930 -0.907235 16.996147 -0.980291 -0.728896 -7.873498 -0.822000 -12.121448 -1.043674 -0.542201 7.249389 -6.812094 88.130123 6.374921 -2.889603 3.218471 3.092969 -7.638089 -4.101341 -19.459729 -1.698386 0.211001 0.231680 -3.565319 -91.605355 -3.578674 3.014781 -1.712036 0.121332 -0.805070 4.168826 14.472848 13.855227 -5.830281 0.992951 -1.063852 -0.005340 -4.421198 -4.495988 6.544007 -0.089062 0.376202 -0.050210 15.263141 12.560925 6.930296 11.851981 -0.567540 -0.320588 -2.017979 -5.056645 -3.827479 -0.034007 -0.465824 -0.050285
27.424719 88.651810 -15.957073 -57.346377 -6.125596 0.535570 7.782294 3.166735 0.939361 4.453557 1.848228 0.332455 5.569339 2.305808 0.438005 4.453558 1.848228 0.332455 -0.868250 16.982127 -0.960337 -0.692453 -7.889152 -0.809797 -12.111300 -1.060869 -0.531758 7.375350 -6.923680 88.261501 6.478935 -2.889008 3.253420 3.118037 -7.632913 -4.119642 -19.471396 -1.744686 0.197014 0.281326 -3.652186 -91.566191 -4.018483 2.847853 -2.455681 0.259655 -0.926561 3.494326 14.532848 13.971701 -5.787149 0.959930 -1.078424 -0.007118 -4.307880 -4.534628 6.512010 -0.076455 0.369398 -0.045845 15.291787 12.655574 6.984691 11.861447 -0.540260 -0.300686 -2.016302 -5.089509 -3.888129 -0.034055 -0.460071 -0.047956
27.329932 88.646623 -15.955192 -57.368430 -6.186480 0.541236 7.782768 3.152248 0.947265 4.453952 1.839020 0.335978 5.569834 2.294258 0.442298 4.453952 1.839021 0.335978 -0.831679 16.970042 -0.938879 -0.658897 -7.902689 -0.795483 -12.110579 -1.072765 -0.520977 7.508824 -7.037613 88.394896 6.547052 -2.884735 3.279626 3.133897 -7.624944 -4.132314 -19.486503 -1.788762 0.185685 0.365624 -3.724887 -91.514696 -4.472648 2.649745 -3.216672 0.432317 -0.970121 2.922279 14.572021 14.084409 -5.762435 0.931893 -1.093429 -0.010219 -4.094214 -4.572037 6.482074 -0.054388 0.353054 -0.035811 15.329504 12.744650 7.043354 11.862748 -0.508128 -0.282997 -2.014946 -5.120978 -3.947740 -0.033831 -0.456206 -0.045489
